{
  "source": "C:\\Users\\Peter\\Desktop\\stuff\\MIUN\\quantitative_research\\video_compression\\videos\\HEVC_CLASS_B\\Kimono_1920x1080_24.y4m",
  "output": "C:\\Users\\Peter\\Desktop\\stuff\\MIUN\\quantitative_research\\video_compression\\compressed_videos\\HEVC_CLASS_B\\vp9\\12\\Kimono_1920x1080_24_vp9.webm",
  "codec": "vp9",
  "ok": "Input #0, yuv4mpegpipe, from 'C:\\Users\\Peter\\Desktop\\stuff\\MIUN\\quantitative_research\\video_compression\\videos\\HEVC_CLASS_B\\Kimono_1920x1080_24.y4m':\n  Duration: 00:00:10.00, start: 0.000000, bitrate: 597198 kb/s\n  Stream #0:0: Video: rawvideo (I420 / 0x30323449), yuv420p(progressive), 1920x1080, 24 fps, 24 tbr, 24 tbn\n[out#0/webm @ 0000015fc0436cc0] Codec AVOption b:a (set bitrate (in bits/s)) has not been used for any stream. The most likely reason is either wrong type (e.g. a video option with no video streams) or that it is a private option of some decoder which was not actually used for any stream.\nStream mapping:\n  Stream #0:0 -> #0:0 (rawvideo (native) -> vp9 (libvpx-vp9))\nPress [q] to stop, [?] for help\n[libvpx-vp9 @ 0000015fc043c2c0] v1.15.2-100-g40561f514\nOutput #0, webm, to 'C:\\Users\\Peter\\Desktop\\stuff\\MIUN\\quantitative_research\\video_compression\\compressed_videos\\HEVC_CLASS_B\\vp9\\12\\Kimono_1920x1080_24_vp9.webm':\n  Metadata:\n    encoder         : Lavf62.3.100\n  Stream #0:0: Video: vp9, yuv420p(tv, progressive), 1920x1080, q=2-31, 12000 kb/s, 24 fps, 1k tbn\n    Metadata:\n      encoder         : Lavc62.11.100 libvpx-vp9\n    Side data:\n      cpb: bitrate max/min/avg: 0/0/0 buffer size: 12000000 vbv_delay: N/A\nframe=    0 fps=0.0 q=0.0 size=       0KiB time=N/A bitrate=N/A speed=N/A elapsed=0:00:00.51    \nframe=    0 fps=0.0 q=0.0 size=       0KiB time=N/A bitrate=N/A speed=N/A elapsed=0:00:01.07    \nframe=    1 fps=0.6 q=12.0 size=       0KiB time=00:00:00.04 bitrate=  92.5kbits/s speed=0.0242x elapsed=0:00:01.72    \nframe=    3 fps=1.2 q=38.0 size=       0KiB time=00:00:00.12 bitrate=  30.8kbits/s speed=0.0518x elapsed=0:00:02.41    \nframe=    5 fps=1.6 q=31.0 size=       0KiB time=00:00:00.20 bitrate=  18.5kbits/s speed=0.0685x elapsed=0:00:03.04    \nframe=    7 fps=1.9 q=29.0 size=       0KiB time=00:00:00.29 bitrate=  13.2kbits/s speed=0.0787x elapsed=0:00:03.70    \nframe=    9 fps=2.1 q=28.0 size=       0KiB time=00:00:00.37 bitrate=  10.3kbits/s speed=0.087x elapsed=0:00:04.30    \nframe=   10 fps=2.0 q=27.0 size=       0KiB time=00:00:00.41 bitrate=   9.3kbits/s speed=0.0853x elapsed=0:00:04.88    \nframe=   11 fps=2.0 q=10.0 size=       0KiB time=00:00:00.45 bitrate=   8.4kbits/s speed=0.0835x elapsed=0:00:05.48    \nframe=   13 fps=2.1 q=26.0 size=       0KiB time=00:00:00.50 bitrate=   7.7kbits/s speed=0.0806x elapsed=0:00:06.20    \nframe=   14 fps=2.0 q=26.0 size=       0KiB time=00:00:00.58 bitrate=   6.6kbits/s speed=0.0849x elapsed=0:00:06.87    \nframe=   15 fps=2.0 q=26.0 size=       0KiB time=00:00:00.62 bitrate=   6.2kbits/s speed=0.0829x elapsed=0:00:07.54    \nframe=   17 fps=2.1 q=26.0 size=       0KiB time=00:00:00.70 bitrate=   5.4kbits/s speed=0.0875x elapsed=0:00:08.09    \nframe=   18 fps=2.1 q=26.0 size=       0KiB time=00:00:00.75 bitrate=   5.1kbits/s speed=0.086x elapsed=0:00:08.71    \nframe=   20 fps=2.2 q=26.0 size=       0KiB time=00:00:00.83 bitrate=   4.6kbits/s speed=0.09x elapsed=0:00:09.25    \nframe=   20 fps=2.0 q=26.0 size=       0KiB time=00:00:00.83 bitrate=   4.6kbits/s speed=0.0836x elapsed=0:00:09.96    \nframe=   20 fps=1.9 q=26.0 size=       0KiB time=00:00:00.83 bitrate=   4.6kbits/s speed=0.0787x elapsed=0:00:10.58    \nframe=   22 fps=2.0 q=26.0 size=       0KiB time=00:00:00.91 bitrate=   4.2kbits/s speed=0.082x elapsed=0:00:11.17    \nframe=   24 fps=2.0 q=25.0 size=       0KiB time=00:00:01.00 bitrate=   3.9kbits/s speed=0.0846x elapsed=0:00:11.82    \nframe=   25 fps=2.0 q=25.0 size=       0KiB time=00:00:01.04 bitrate=   3.7kbits/s speed=0.0839x elapsed=0:00:12.41    \nframe=   27 fps=2.1 q=25.0 size=       0KiB time=00:00:01.12 bitrate=   3.4kbits/s speed=0.0866x elapsed=0:00:12.98    \nframe=   28 fps=2.1 q=25.0 size=       0KiB time=00:00:01.16 bitrate=   3.3kbits/s speed=0.0858x elapsed=0:00:13.59    \nframe=   30 fps=2.1 q=25.0 size=       0KiB time=00:00:01.25 bitrate=   3.1kbits/s speed=0.0878x elapsed=0:00:14.24    \nframe=   30 fps=2.0 q=25.0 size=       0KiB time=00:00:01.25 bitrate=   3.1kbits/s speed=0.0836x elapsed=0:00:14.94    \nframe=   31 fps=2.0 q=7.0 size=       0KiB time=00:00:01.29 bitrate=   3.0kbits/s speed=0.0831x elapsed=0:00:15.55    \nframe=   33 fps=2.0 q=24.0 size=       0KiB time=00:00:01.33 bitrate=   2.9kbits/s speed=0.0824x elapsed=0:00:16.18    \nframe=   34 fps=2.0 q=24.0 size=       0KiB time=00:00:01.41 bitrate=   2.7kbits/s speed=0.084x elapsed=0:00:16.86    \nframe=   35 fps=2.0 q=24.0 size=       0KiB time=00:00:01.45 bitrate=   2.6kbits/s speed=0.083x elapsed=0:00:17.57    \nframe=   37 fps=2.0 q=25.0 size=       0KiB time=00:00:01.54 bitrate=   2.5kbits/s speed=0.0848x elapsed=0:00:18.18    \nframe=   38 fps=2.0 q=25.0 size=       0KiB time=00:00:01.58 bitrate=   2.4kbits/s speed=0.0839x elapsed=0:00:18.87    \nframe=   40 fps=2.0 q=25.0 size=       0KiB time=00:00:01.62 bitrate=   2.4kbits/s speed=0.0832x elapsed=0:00:19.53    \nframe=   40 fps=2.0 q=25.0 size=       0KiB time=00:00:01.66 bitrate=   2.3kbits/s speed=0.0825x elapsed=0:00:20.20    \nframe=   42 fps=2.0 q=23.0 size=       0KiB time=00:00:01.75 bitrate=   2.2kbits/s speed=0.0842x elapsed=0:00:20.79    \nframe=   43 fps=2.0 q=22.0 size=       0KiB time=00:00:01.79 bitrate=   2.2kbits/s speed=0.0831x elapsed=0:00:21.57    \nframe=   44 fps=2.0 q=22.0 size=       0KiB time=00:00:01.83 bitrate=   2.1kbits/s speed=0.0824x elapsed=0:00:22.25    \nframe=   46 fps=2.0 q=23.0 size=       0KiB time=00:00:01.91 bitrate=   2.0kbits/s speed=0.0838x elapsed=0:00:22.85    \nframe=   46 fps=1.9 q=23.0 size=       0KiB time=00:00:01.91 bitrate=   2.0kbits/s speed=0.0812x elapsed=0:00:23.59    \nframe=   48 fps=2.0 q=23.0 size=       0KiB time=00:00:02.00 bitrate=   1.9kbits/s speed=0.0826x elapsed=0:00:24.22    \nframe=   49 fps=2.0 q=23.0 size=       0KiB time=00:00:02.04 bitrate=   1.9kbits/s speed=0.082x elapsed=0:00:24.88    \nframe=   51 fps=2.0 q=23.0 size=       0KiB time=00:00:02.08 bitrate=   1.9kbits/s speed=0.0818x elapsed=0:00:25.47    \nframe=   52 fps=2.0 q=24.0 size=       0KiB time=00:00:02.16 bitrate=   1.8kbits/s speed=0.0827x elapsed=0:00:26.19    \nframe=   52 fps=1.9 q=24.0 size=       0KiB time=00:00:02.16 bitrate=   1.8kbits/s speed=0.0804x elapsed=0:00:26.94    \nframe=   54 fps=2.0 q=24.0 size=       0KiB time=00:00:02.20 bitrate=   1.7kbits/s speed=0.08x elapsed=0:00:27.58    \nframe=   55 fps=2.0 q=23.0 size=       0KiB time=00:00:02.29 bitrate=   1.7kbits/s speed=0.0813x elapsed=0:00:28.20    \nframe=   57 fps=2.0 q=24.0 size=       0KiB time=00:00:02.37 bitrate=   1.6kbits/s speed=0.0824x elapsed=0:00:28.81    \nframe=   58 fps=2.0 q=24.0 size=       0KiB time=00:00:02.41 bitrate=   1.6kbits/s speed=0.082x elapsed=0:00:29.45    \nframe=   58 fps=1.9 q=24.0 size=       0KiB time=00:00:02.41 bitrate=   1.6kbits/s speed=0.0803x elapsed=0:00:30.11    \nframe=   60 fps=2.0 q=20.0 size=       0KiB time=00:00:02.50 bitrate=   1.5kbits/s speed=0.0813x elapsed=0:00:30.73    \nframe=   61 fps=1.9 q=19.0 size=       0KiB time=00:00:02.54 bitrate=   1.5kbits/s speed=0.081x elapsed=0:00:31.39    \nframe=   62 fps=1.9 q=20.0 size=       0KiB time=00:00:02.58 bitrate=   1.5kbits/s speed=0.0805x elapsed=0:00:32.08    \nframe=   64 fps=2.0 q=20.0 size=       0KiB time=00:00:02.66 bitrate=   1.4kbits/s speed=0.0816x elapsed=0:00:32.66    \nframe=   66 fps=2.0 q=20.0 size=       0KiB time=00:00:02.70 bitrate=   1.4kbits/s speed=0.0813x elapsed=0:00:33.29    \nframe=   67 fps=2.0 q=20.0 size=       0KiB time=00:00:02.79 bitrate=   1.4kbits/s speed=0.0823x elapsed=0:00:33.94    \nframe=   68 fps=2.0 q=20.0 size=       0KiB time=00:00:02.83 bitrate=   1.4kbits/s speed=0.082x elapsed=0:00:34.55    \nframe=   69 fps=2.0 q=10.0 size=       0KiB time=00:00:02.83 bitrate=   1.4kbits/s speed=0.0805x elapsed=0:00:35.20    \nframe=   70 fps=2.0 q=24.0 size=       0KiB time=00:00:02.91 bitrate=   1.3kbits/s speed=0.0815x elapsed=0:00:35.77    \nframe=   71 fps=2.0 q=23.0 size=       0KiB time=00:00:02.95 bitrate=   1.3kbits/s speed=0.0813x elapsed=0:00:36.37    \nframe=   73 fps=2.0 q=22.0 size=       0KiB time=00:00:03.00 bitrate=   1.3kbits/s speed=0.0812x elapsed=0:00:36.93    \nframe=   74 fps=2.0 q=22.0 size=       0KiB time=00:00:03.08 bitrate=   1.3kbits/s speed=0.0822x elapsed=0:00:37.51    \nframe=   74 fps=1.9 q=22.0 size=       0KiB time=00:00:03.08 bitrate=   1.3kbits/s speed=0.0807x elapsed=0:00:38.22    \nframe=   76 fps=2.0 q=22.0 size=       0KiB time=00:00:03.16 bitrate=   1.2kbits/s speed=0.0815x elapsed=0:00:38.84    \nframe=   77 fps=1.9 q=22.0 size=       0KiB time=00:00:03.20 bitrate=   1.2kbits/s speed=0.0812x elapsed=0:00:39.53    \nframe=   79 fps=2.0 q=22.0 size=       0KiB time=00:00:03.29 bitrate=   1.2kbits/s speed=0.082x elapsed=0:00:40.13    \nframe=   80 fps=2.0 q=23.0 size=       0KiB time=00:00:03.33 bitrate=   1.2kbits/s speed=0.0818x elapsed=0:00:40.74    \nframe=   81 fps=2.0 q=11.0 size=       0KiB time=00:00:03.37 bitrate=   1.1kbits/s speed=0.0815x elapsed=0:00:41.38    \nframe=   82 fps=2.0 q=22.0 size=       0KiB time=00:00:03.41 bitrate=   1.1kbits/s speed=0.0814x elapsed=0:00:41.99    \nframe=   84 fps=2.0 q=22.0 size=       0KiB time=00:00:03.45 bitrate=   1.1kbits/s speed=0.0811x elapsed=0:00:42.62    \nframe=   85 fps=2.0 q=22.0 size=       0KiB time=00:00:03.54 bitrate=   1.1kbits/s speed=0.0818x elapsed=0:00:43.28    \nframe=   86 fps=2.0 q=23.0 size=       0KiB time=00:00:03.58 bitrate=   1.1kbits/s speed=0.0815x elapsed=0:00:43.95    \nframe=   87 fps=1.9 q=11.0 size=       0KiB time=00:00:03.62 bitrate=   1.1kbits/s speed=0.0812x elapsed=0:00:44.65    \nframe=   88 fps=1.9 q=23.0 size=       0KiB time=00:00:03.66 bitrate=   1.1kbits/s speed=0.081x elapsed=0:00:45.26    \nframe=   90 fps=2.0 q=22.0 size=       0KiB time=00:00:03.75 bitrate=   1.0kbits/s speed=0.0818x elapsed=0:00:45.86    \nframe=   91 fps=2.0 q=22.0 size=       0KiB time=00:00:03.79 bitrate=   1.0kbits/s speed=0.0815x elapsed=0:00:46.51    \nframe=   92 fps=1.9 q=22.0 size=       0KiB time=00:00:03.83 bitrate=   1.0kbits/s speed=0.0812x elapsed=0:00:47.19    \nframe=   93 fps=1.9 q=10.0 size=       0KiB time=00:00:03.87 bitrate=   1.0kbits/s speed=0.0809x elapsed=0:00:47.91    \nframe=   95 fps=2.0 q=22.0 size=       0KiB time=00:00:03.95 bitrate=   1.0kbits/s speed=0.0816x elapsed=0:00:48.48    \nframe=   96 fps=2.0 q=22.0 size=       0KiB time=00:00:04.00 bitrate=   1.0kbits/s speed=0.0813x elapsed=0:00:49.19    \nframe=   97 fps=1.9 q=22.0 size=       0KiB time=00:00:04.04 bitrate=   1.0kbits/s speed=0.0811x elapsed=0:00:49.82    \nframe=   98 fps=1.9 q=22.0 size=       0KiB time=00:00:04.08 bitrate=   0.9kbits/s speed=0.0811x elapsed=0:00:50.37    \nframe=   99 fps=1.9 q=11.0 size=       0KiB time=00:00:04.08 bitrate=   0.9kbits/s speed=0.0801x elapsed=0:00:50.98    \nframe=  100 fps=1.9 q=22.0 size=    5120KiB time=00:00:04.16 bitrate=10066.3kbits/s speed=0.0808x elapsed=0:00:51.55    \nframe=  102 fps=2.0 q=21.0 size=    5120KiB time=00:00:04.25 bitrate=9869.0kbits/s speed=0.0816x elapsed=0:00:52.10    \nframe=  104 fps=2.0 q=22.0 size=    5120KiB time=00:00:04.33 bitrate=9679.2kbits/s speed=0.0822x elapsed=0:00:52.72    \nframe=  105 fps=2.0 q=10.0 size=    5120KiB time=00:00:04.37 bitrate=9587.0kbits/s speed=0.082x elapsed=0:00:53.33    \nframe=  106 fps=2.0 q=18.0 size=    5120KiB time=00:00:04.41 bitrate=9496.5kbits/s speed=0.0819x elapsed=0:00:53.93    \nframe=  107 fps=2.0 q=18.0 size=    5120KiB time=00:00:04.45 bitrate=9407.8kbits/s speed=0.0817x elapsed=0:00:54.56    \nframe=  108 fps=2.0 q=18.0 size=    5120KiB time=00:00:04.50 bitrate=9320.7kbits/s speed=0.0816x elapsed=0:00:55.14    \nframe=  109 fps=2.0 q=19.0 size=    5120KiB time=00:00:04.54 bitrate=9235.2kbits/s speed=0.0815x elapsed=0:00:55.72    \nframe=  110 fps=2.0 q=19.0 size=    5120KiB time=00:00:04.58 bitrate=9151.2kbits/s speed=0.0814x elapsed=0:00:56.29    \nframe=  111 fps=2.0 q=19.0 size=    5120KiB time=00:00:04.62 bitrate=9068.8kbits/s speed=0.0813x elapsed=0:00:56.90    \nframe=  112 fps=1.9 q=19.0 size=    5120KiB time=00:00:04.66 bitrate=8987.8kbits/s speed=0.081x elapsed=0:00:57.64    \nframe=  113 fps=1.9 q=19.0 size=    5120KiB time=00:00:04.70 bitrate=8908.3kbits/s speed=0.0807x elapsed=0:00:58.32    \nframe=  114 fps=1.9 q=19.0 size=    5120KiB time=00:00:04.75 bitrate=8830.1kbits/s speed=0.0805x elapsed=0:00:58.99    \nframe=  114 fps=1.9 q=19.0 size=    5120KiB time=00:00:04.75 bitrate=8830.1kbits/s speed=0.0796x elapsed=0:00:59.65    \nframe=  115 fps=1.9 q=9.0 size=    5120KiB time=00:00:04.79 bitrate=8753.3kbits/s speed=0.0796x elapsed=0:01:00.20    \nframe=  117 fps=1.9 q=21.0 size=    5120KiB time=00:00:04.87 bitrate=8603.7kbits/s speed=0.0802x elapsed=0:01:00.79    \nframe=  118 fps=1.9 q=21.0 size=    5120KiB time=00:00:04.91 bitrate=8530.8kbits/s speed=0.08x elapsed=0:01:01.46    \nframe=  119 fps=1.9 q=21.0 size=    5120KiB time=00:00:04.95 bitrate=8459.1kbits/s speed=0.0798x elapsed=0:01:02.12    \nframe=  121 fps=1.9 q=21.0 size=    5120KiB time=00:00:05.00 bitrate=8388.6kbits/s speed=0.0798x elapsed=0:01:02.67    \nframe=  121 fps=1.9 q=21.0 size=    5120KiB time=00:00:05.04 bitrate=8319.3kbits/s speed=0.0797x elapsed=0:01:03.26    \nframe=  122 fps=1.9 q=10.0 size=    5120KiB time=00:00:05.08 bitrate=8251.1kbits/s speed=0.0796x elapsed=0:01:03.88    \nframe=  123 fps=1.9 q=21.0 size=    5120KiB time=00:00:05.12 bitrate=8184.0kbits/s speed=0.0795x elapsed=0:01:04.49    \nframe=  124 fps=1.9 q=20.0 size=    5120KiB time=00:00:05.16 bitrate=8118.0kbits/s speed=0.0793x elapsed=0:01:05.12    \nframe=  125 fps=1.9 q=20.0 size=    5120KiB time=00:00:05.20 bitrate=8053.1kbits/s speed=0.0792x elapsed=0:01:05.75    \nframe=  127 fps=1.9 q=21.0 size=    5120KiB time=00:00:05.25 bitrate=7989.2kbits/s speed=0.0792x elapsed=0:01:06.29    \nframe=  128 fps=1.9 q=21.0 size=    5120KiB time=00:00:05.29 bitrate=7926.2kbits/s speed=0.0791x elapsed=0:01:06.88    \nframe=  128 fps=1.9 q=21.0 size=    5120KiB time=00:00:05.33 bitrate=7864.3kbits/s speed=0.079x elapsed=0:01:07.55    \nframe=  130 fps=1.9 q=22.0 size=    6656KiB time=00:00:05.41 bitrate=10066.3kbits/s speed=0.0795x elapsed=0:01:08.15    \nframe=  132 fps=1.9 q=22.0 size=    6656KiB time=00:00:05.50 bitrate=9913.8kbits/s speed=0.08x elapsed=0:01:08.76    \nframe=  134 fps=1.9 q=22.0 size=    6656KiB time=00:00:05.58 bitrate=9765.8kbits/s speed=0.0806x elapsed=0:01:09.30    \nframe=  134 fps=1.9 q=22.0 size=    6656KiB time=00:00:05.58 bitrate=9765.8kbits/s speed=0.0799x elapsed=0:01:09.85    \nframe=  135 fps=1.9 q=10.0 size=    6656KiB time=00:00:05.62 bitrate=9693.5kbits/s speed=0.0798x elapsed=0:01:10.45    \nframe=  136 fps=1.9 q=18.0 size=    6656KiB time=00:00:05.66 bitrate=9622.2kbits/s speed=0.0797x elapsed=0:01:11.08    \nframe=  137 fps=1.9 q=18.0 size=    6656KiB time=00:00:05.70 bitrate=9552.0kbits/s speed=0.0795x elapsed=0:01:11.76    \nframe=  138 fps=1.9 q=18.0 size=    6656KiB time=00:00:05.75 bitrate=9482.8kbits/s speed=0.0793x elapsed=0:01:12.46    \nframe=  139 fps=1.9 q=18.0 size=    6656KiB time=00:00:05.79 bitrate=9414.6kbits/s speed=0.0792x elapsed=0:01:13.08    \nframe=  140 fps=1.9 q=18.0 size=    6656KiB time=00:00:05.83 bitrate=9347.3kbits/s speed=0.0791x elapsed=0:01:13.71    \nframe=  141 fps=1.9 q=18.0 size=    6656KiB time=00:00:05.87 bitrate=9281.0kbits/s speed=0.0791x elapsed=0:01:14.29    \nframe=  142 fps=1.9 q=28.0 size=    6656KiB time=00:00:05.91 bitrate=9215.7kbits/s speed=0.079x elapsed=0:01:14.91    \nframe=  143 fps=1.9 q=17.0 size=    6656KiB time=00:00:05.95 bitrate=9151.2kbits/s speed=0.0789x elapsed=0:01:15.52    \nframe=  144 fps=1.9 q=20.0 size=    6656KiB time=00:00:06.00 bitrate=9087.7kbits/s speed=0.0788x elapsed=0:01:16.18    \nframe=  144 fps=1.9 q=20.0 size=    6656KiB time=00:00:06.00 bitrate=9087.7kbits/s speed=0.078x elapsed=0:01:16.90    \nframe=  146 fps=1.9 q=22.0 size=    6656KiB time=00:00:06.08 bitrate=8963.2kbits/s speed=0.0784x elapsed=0:01:17.59    \nframe=  147 fps=1.9 q=16.0 size=    6656KiB time=00:00:06.12 bitrate=8902.2kbits/s speed=0.0782x elapsed=0:01:18.27    \nframe=  148 fps=1.9 q=17.0 size=    6656KiB time=00:00:06.16 bitrate=8842.0kbits/s speed=0.0781x elapsed=0:01:18.91    \nframe=  150 fps=1.9 q=17.0 size=    6656KiB time=00:00:06.25 bitrate=8724.2kbits/s speed=0.0786x elapsed=0:01:19.52    \nframe=  151 fps=1.9 q=17.0 size=    6656KiB time=00:00:06.29 bitrate=8666.4kbits/s speed=0.0785x elapsed=0:01:20.15    \nframe=  152 fps=1.9 q=17.0 size=    6656KiB time=00:00:06.33 bitrate=8609.4kbits/s speed=0.0784x elapsed=0:01:20.80    \nframe=  154 fps=1.9 q=17.0 size=    6656KiB time=00:00:06.41 bitrate=8497.6kbits/s speed=0.0788x elapsed=0:01:21.40    \nframe=  154 fps=1.9 q=17.0 size=    6656KiB time=00:00:06.41 bitrate=8497.6kbits/s speed=0.0782x elapsed=0:01:22.07    \nframe=  154 fps=1.9 q=17.0 size=    6656KiB time=00:00:06.41 bitrate=8497.6kbits/s speed=0.0776x elapsed=0:01:22.65    \nframe=  155 fps=1.9 q=6.0 size=    6656KiB time=00:00:06.45 bitrate=8442.7kbits/s speed=0.0776x elapsed=0:01:23.23    \nframe=  157 fps=1.9 q=16.0 size=    6656KiB time=00:00:06.54 bitrate=8335.2kbits/s speed=0.0781x elapsed=0:01:23.78    \nframe=  158 fps=1.9 q=17.0 size=    6656KiB time=00:00:06.58 bitrate=8282.4kbits/s speed=0.078x elapsed=0:01:24.36    \nframe=  160 fps=1.9 q=18.0 size=    6656KiB time=00:00:06.66 bitrate=8178.9kbits/s speed=0.0785x elapsed=0:01:24.97    \nframe=  161 fps=1.9 q=18.0 size=    6656KiB time=00:00:06.70 bitrate=8128.1kbits/s speed=0.0784x elapsed=0:01:25.58    \nframe=  162 fps=1.9 q=18.0 size=    6656KiB time=00:00:06.75 bitrate=8077.9kbits/s speed=0.0783x elapsed=0:01:26.23    \nframe=  164 fps=1.9 q=18.0 size=    6656KiB time=00:00:06.83 bitrate=7979.4kbits/s speed=0.0786x elapsed=0:01:26.89    \nframe=  164 fps=1.9 q=18.0 size=    6656KiB time=00:00:06.83 bitrate=7979.4kbits/s speed=0.0781x elapsed=0:01:27.53    \nframe=  164 fps=1.9 q=18.0 size=    6656KiB time=00:00:06.83 bitrate=7979.4kbits/s speed=0.0775x elapsed=0:01:28.13    \nframe=  166 fps=1.9 q=19.0 size=    6656KiB time=00:00:06.91 bitrate=7883.3kbits/s speed=0.0779x elapsed=0:01:28.74    \nframe=  168 fps=1.9 q=17.0 size=    6656KiB time=00:00:07.00 bitrate=7789.4kbits/s speed=0.0783x elapsed=0:01:29.35    \nframe=  169 fps=1.9 q=17.0 size=    6656KiB time=00:00:07.04 bitrate=7743.3kbits/s speed=0.0783x elapsed=0:01:29.98    \nframe=  170 fps=1.9 q=17.0 size=    6656KiB time=00:00:07.08 bitrate=7697.8kbits/s speed=0.0781x elapsed=0:01:30.64    \nframe=  172 fps=1.9 q=18.0 size=    6656KiB time=00:00:07.16 bitrate=7608.3kbits/s speed=0.0786x elapsed=0:01:31.22    \nframe=  173 fps=1.9 q=18.0 size=    6656KiB time=00:00:07.20 bitrate=7564.3kbits/s speed=0.0785x elapsed=0:01:31.83    \nframe=  174 fps=1.9 q=18.0 size=    6656KiB time=00:00:07.25 bitrate=7520.8kbits/s speed=0.0785x elapsed=0:01:32.39    \nframe=  174 fps=1.9 q=18.0 size=    6656KiB time=00:00:07.25 bitrate=7520.8kbits/s speed=0.078x elapsed=0:01:32.96    \nframe=  176 fps=1.9 q=18.0 size=    6656KiB time=00:00:07.33 bitrate=7435.4kbits/s speed=0.0784x elapsed=0:01:33.53    \nframe=  177 fps=1.9 q=16.0 size=    6656KiB time=00:00:07.37 bitrate=7393.3kbits/s speed=0.0783x elapsed=0:01:34.22    \nframe=  179 fps=1.9 q=17.0 size=    6656KiB time=00:00:07.45 bitrate=7310.7kbits/s speed=0.0786x elapsed=0:01:34.84    \nframe=  180 fps=1.9 q=17.0 size=    6656KiB time=00:00:07.50 bitrate=7270.1kbits/s speed=0.0785x elapsed=0:01:35.49    \nframe=  182 fps=1.9 q=17.0 size=    6656KiB time=00:00:07.58 bitrate=7190.2kbits/s speed=0.0789x elapsed=0:01:36.06    \nframe=  184 fps=1.9 q=17.0 size=    6656KiB time=00:00:07.66 bitrate=7112.1kbits/s speed=0.0793x elapsed=0:01:36.67    \nframe=  184 fps=1.9 q=17.0 size=    6656KiB time=00:00:07.66 bitrate=7112.1kbits/s speed=0.0788x elapsed=0:01:37.27    \nframe=  184 fps=1.9 q=17.0 size=    6656KiB time=00:00:07.66 bitrate=7112.1kbits/s speed=0.0783x elapsed=0:01:37.90    \nframe=  185 fps=1.9 q=6.0 size=    6656KiB time=00:00:07.70 bitrate=7073.6kbits/s speed=0.0783x elapsed=0:01:38.48    \nframe=  186 fps=1.9 q=17.0 size=    6656KiB time=00:00:07.75 bitrate=7035.6kbits/s speed=0.0783x elapsed=0:01:39.03    \nframe=  188 fps=1.9 q=16.0 size=    6656KiB time=00:00:07.79 bitrate=6998.0kbits/s speed=0.0782x elapsed=0:01:39.63    \nframe=  189 fps=1.9 q=16.0 size=    6656KiB time=00:00:07.87 bitrate=6923.9kbits/s speed=0.0785x elapsed=0:01:40.29    \nframe=  190 fps=1.9 q=16.0 size=    6656KiB time=00:00:07.91 bitrate=6887.5kbits/s speed=0.0785x elapsed=0:01:40.88    \nframe=  192 fps=1.9 q=16.0 size=    6656KiB time=00:00:08.00 bitrate=6815.7kbits/s speed=0.0789x elapsed=0:01:41.45    \nframe=  193 fps=1.9 q=17.0 size=    6656KiB time=00:00:08.04 bitrate=6780.4kbits/s speed=0.0788x elapsed=0:01:42.08    \nframe=  194 fps=1.9 q=17.0 size=    6656KiB time=00:00:08.08 bitrate=6745.5kbits/s speed=0.0787x elapsed=0:01:42.73    \nframe=  194 fps=1.9 q=17.0 size=    6656KiB time=00:00:08.08 bitrate=6745.5kbits/s speed=0.0782x elapsed=0:01:43.36    \nframe=  195 fps=1.9 q=6.0 size=    6656KiB time=00:00:08.12 bitrate=6710.9kbits/s speed=0.0781x elapsed=0:01:44.00    \nframe=  196 fps=1.9 q=18.0 size=    6656KiB time=00:00:08.16 bitrate=6676.6kbits/s speed=0.078x elapsed=0:01:44.65    \nframe=  198 fps=1.9 q=17.0 size=    6656KiB time=00:00:08.25 bitrate=6609.2kbits/s speed=0.0784x elapsed=0:01:45.27    \nframe=  199 fps=1.9 q=16.0 size=    6656KiB time=00:00:08.29 bitrate=6576.0kbits/s speed=0.0783x elapsed=0:01:45.93    \nframe=  200 fps=1.9 q=16.0 size=    6656KiB time=00:00:08.33 bitrate=6543.1kbits/s speed=0.0782x elapsed=0:01:46.59    \nframe=  202 fps=1.9 q=17.0 size=    6656KiB time=00:00:08.41 bitrate=6478.3kbits/s speed=0.0785x elapsed=0:01:47.23    \nframe=  203 fps=1.9 q=17.0 size=    6656KiB time=00:00:08.45 bitrate=6446.4kbits/s speed=0.0784x elapsed=0:01:47.87    \nframe=  204 fps=1.9 q=17.0 size=    6656KiB time=00:00:08.50 bitrate=6414.8kbits/s speed=0.0783x elapsed=0:01:48.53    \nframe=  204 fps=1.9 q=17.0 size=    6656KiB time=00:00:08.50 bitrate=6414.8kbits/s speed=0.0778x elapsed=0:01:49.20    \nframe=  205 fps=1.9 q=6.0 size=    6656KiB time=00:00:08.54 bitrate=6383.5kbits/s speed=0.0777x elapsed=0:01:49.89    \nframe=  207 fps=1.9 q=15.0 size=   12032KiB time=00:00:08.62 bitrate=11428.0kbits/s speed=0.0781x elapsed=0:01:50.44    \nframe=  208 fps=1.9 q=16.0 size=   12032KiB time=00:00:08.66 bitrate=11373.0kbits/s speed=0.078x elapsed=0:01:51.04    \nframe=  210 fps=1.9 q=16.0 size=   12032KiB time=00:00:08.75 bitrate=11264.7kbits/s speed=0.0784x elapsed=0:01:51.62    \nframe=  211 fps=1.9 q=16.0 size=   12032KiB time=00:00:08.79 bitrate=11211.3kbits/s speed=0.0783x elapsed=0:01:52.22    \nframe=  213 fps=1.9 q=16.0 size=   12032KiB time=00:00:08.83 bitrate=11158.4kbits/s speed=0.0783x elapsed=0:01:52.83    \nframe=  214 fps=1.9 q=16.0 size=   12032KiB time=00:00:08.91 bitrate=11054.1kbits/s speed=0.0786x elapsed=0:01:53.42    \nframe=  214 fps=1.9 q=16.0 size=   12032KiB time=00:00:08.91 bitrate=11054.1kbits/s speed=0.0782x elapsed=0:01:54.02    \nframe=  214 fps=1.9 q=16.0 size=   12032KiB time=00:00:08.91 bitrate=11054.1kbits/s speed=0.0778x elapsed=0:01:54.62    \nframe=  216 fps=1.9 q=16.0 size=   12032KiB time=00:00:09.00 bitrate=10951.8kbits/s speed=0.0781x elapsed=0:01:55.17    \nframe=  216 fps=1.9 q=16.0 size=   12032KiB time=00:00:09.00 bitrate=10951.8kbits/s speed=0.0777x elapsed=0:01:55.77    \nframe=  216 fps=1.9 q=16.0 size=   12032KiB time=00:00:09.00 bitrate=10951.8kbits/s speed=0.0774x elapsed=0:01:56.35    \nframe=  216 fps=1.8 q=16.0 size=   12032KiB time=00:00:09.00 bitrate=10951.8kbits/s speed=0.077x elapsed=0:01:56.89    \nframe=  216 fps=1.8 q=16.0 size=   12032KiB time=00:00:09.00 bitrate=10951.8kbits/s speed=0.0766x elapsed=0:01:57.56    \nframe=  216 fps=1.8 q=16.0 size=   12032KiB time=00:00:09.00 bitrate=10951.8kbits/s speed=0.0762x elapsed=0:01:58.18    \nframe=  216 fps=1.8 q=16.0 size=   12032KiB time=00:00:09.00 bitrate=10951.8kbits/s speed=0.0758x elapsed=0:01:58.78    \nframe=  216 fps=1.8 q=16.0 size=   12032KiB time=00:00:09.00 bitrate=10951.8kbits/s speed=0.0754x elapsed=0:01:59.35    \nframe=  216 fps=1.8 q=16.0 size=   12032KiB time=00:00:09.00 bitrate=10951.8kbits/s speed=0.0751x elapsed=0:01:59.91    \nframe=  216 fps=1.8 q=16.0 size=   12032KiB time=00:00:09.00 bitrate=10951.8kbits/s speed=0.0747x elapsed=0:02:00.49    \nframe=  216 fps=1.8 q=16.0 size=   12032KiB time=00:00:09.00 bitrate=10951.8kbits/s speed=0.0743x elapsed=0:02:01.06    \nframe=  216 fps=1.8 q=16.0 size=   12032KiB time=00:00:09.00 bitrate=10951.8kbits/s speed=0.074x elapsed=0:02:01.69    \nframe=  216 fps=1.8 q=16.0 size=   12032KiB time=00:00:09.00 bitrate=10951.8kbits/s speed=0.0736x elapsed=0:02:02.27    \nframe=  216 fps=1.8 q=16.0 size=   12032KiB time=00:00:09.00 bitrate=10951.8kbits/s speed=0.0733x elapsed=0:02:02.85    \nframe=  216 fps=1.8 q=16.0 size=   12032KiB time=00:00:09.00 bitrate=10951.8kbits/s speed=0.0729x elapsed=0:02:03.41    \nframe=  216 fps=1.7 q=16.0 size=   12032KiB time=00:00:09.00 bitrate=10951.8kbits/s speed=0.0726x elapsed=0:02:04.00    \nframe=  216 fps=1.7 q=16.0 size=   12032KiB time=00:00:09.00 bitrate=10951.8kbits/s speed=0.0723x elapsed=0:02:04.55    \nframe=  216 fps=1.7 q=16.0 size=   12032KiB time=00:00:09.00 bitrate=10951.8kbits/s speed=0.0719x elapsed=0:02:05.12    \nframe=  216 fps=1.7 q=16.0 size=   12032KiB time=00:00:09.00 bitrate=10951.8kbits/s speed=0.0716x elapsed=0:02:05.71    \nframe=  216 fps=1.7 q=16.0 size=   12032KiB time=00:00:09.00 bitrate=10951.8kbits/s speed=0.0712x elapsed=0:02:06.33    \n[out#0/webm @ 0000015fc0436cc0] video:14184KiB audio:0KiB subtitle:0KiB other streams:0KiB global headers:0KiB muxing overhead: 0.017110%\nframe=  240 fps=1.9 q=15.0 Lsize=   14186KiB time=00:00:10.00 bitrate=11621.3kbits/s speed=0.079x elapsed=0:02:06.55    \n",
  "seconds": 126.98676562309265,
  "probe_out": {}
}